<svg width="38" height="38" viewBox="0 0 38 38" fill="none" xmlns="http://www.w3.org/2000/svg">
<rect x="2.45166" y="2.45161" width="33.0968" height="33.0968" rx="7" fill="#304B3F"/>
<path fill-rule="evenodd" clip-rule="evenodd" d="M0 10.0278C0 4.48959 4.48959 0 10.0278 0H27.9722C33.5104 0 38 4.48959 38 10.0278V27.9722C38 33.5104 33.5104 38 27.9722 38H10.0278C4.48959 38 0 33.5104 0 27.9722V10.0278ZM10.0278 3.16667C6.23849 3.16667 3.16667 6.23849 3.16667 10.0278V27.9722C3.16667 31.7615 6.23849 34.8333 10.0278 34.8333H27.9722C31.7615 34.8333 34.8333 31.7615 34.8333 27.9722V10.0278C34.8333 6.23849 31.7615 3.16667 27.9722 3.16667H10.0278ZM26.7619 10.8368C27.481 11.3343 27.6607 12.3205 27.1632 13.0397L17.6704 26.7619C17.3805 27.181 16.9066 27.4349 16.3971 27.4442C15.8876 27.4535 15.4048 27.217 15.0998 26.8088L10.8705 21.1477C10.3471 20.4472 10.4907 19.455 11.1912 18.9317C11.8918 18.4083 12.8839 18.5519 13.4073 19.2525L16.3188 23.1495L24.559 11.2381C25.0565 10.519 26.0428 10.3393 26.7619 10.8368Z" fill="#D5DFC6"/>
</svg>
